0
SECTION
2
HEADER
9
$ACADVER
1
AC1015
9
$INSBASE
10
0.0
20
0.0
30
0.0
9
$EXTMIN
10
-10.0
20
-10.0
30
0.0
9
$EXTMAX
10
10.0
20
10.0
30
0.0
9
$INSUNITS
70
4
0
ENDSEC
0
SECTION
2
TABLES
0
TABLE
2
LAYER
70
8
0
LAYER
5
65
100
AcDbSymbolTableRecord
100
AcDbLayerTableRecord
2
0
70
0
62
7
6
CONTINUOUS
0
LAYER
5
66
100
AcDbSymbolTableRecord
100
AcDbLayerTableRecord
2
Copper
70
0
62
1
6
CONTINUOUS
0
LAYER
5
67
100
AcDbSymbolTableRecord
100
AcDbLayerTableRecord
2
Package
70
0
62
3
6
CONTINUOUS
0
LAYER
5
68
100
AcDbSymbolTableRecord
100
AcDbLayerTableRecord
2
Footprint
70
0
62
4
6
CONTINUOUS
0
LAYER
5
69
100
AcDbSymbolTableRecord
100
AcDbLayerTableRecord
2
SilkScreen
70
0
62
2
6
CONTINUOUS
0
LAYER
5
6A
100
AcDbSymbolTableRecord
100
AcDbLayerTableRecord
2
SolderMask
70
0
62
6
6
CONTINUOUS
0
LAYER
5
6B
100
AcDbSymbolTableRecord
100
AcDbLayerTableRecord
2
Via
70
0
62
5
6
CONTINUOUS
0
LAYER
5
6C
100
AcDbSymbolTableRecord
100
AcDbLayerTableRecord
2
Text
70
0
62
7
6
CONTINUOUS
0
ENDTAB
0
ENDSEC
0
SECTION
2
BLOCKS
0
ENDSEC
0
SECTION
2
ENTITIES
0
LWPOLYLINE
5
6D
100
AcDbEntity
8
Copper
100
AcDbPolyline
90
4
70
1
10
-1.0000
20
-3.0000
10
1.0000
20
-3.0000
10
1.0000
20
3.0000
10
-1.0000
20
3.0000
0
LWPOLYLINE
5
6E
100
AcDbEntity
8
Copper
100
AcDbPolyline
90
4
70
1
10
-2.5500
20
-2.3050
10
-1.7500
20
-2.3050
10
-1.7500
20
2.3050
10
-2.5500
20
2.3050
0
LWPOLYLINE
5
6F
100
AcDbEntity
8
Copper
100
AcDbPolyline
90
4
70
1
10
1.7500
20
-2.3050
10
2.5500
20
-2.3050
10
2.5500
20
2.3050
10
1.7500
20
2.3050
0
LWPOLYLINE
5
70
100
AcDbEntity
8
Package
100
AcDbPolyline
90
5
70
1
10
-1.9500
20
3.0000
10
2.4500
20
3.0000
10
2.4500
20
-3.0000
10
-2.4500
20
-3.0000
10
-2.4500
20
2.5000
0
LWPOLYLINE
5
71
100
AcDbEntity
8
Footprint
100
AcDbPolyline
90
4
70
1
10
-2.7000
20
-3.2000
10
2.7000
20
-3.2000
10
2.7000
20
3.2000
10
-2.7000
20
3.2000
0
LWPOLYLINE
5
72
100
AcDbEntity
8
SolderMask
100
AcDbPolyline
90
4
70
1
10
-1.0500
20
-3.0500
10
1.0500
20
-3.0500
10
1.0500
20
3.0500
10
-1.0500
20
3.0500
0
LWPOLYLINE
5
73
100
AcDbEntity
8
SolderMask
100
AcDbPolyline
90
4
70
1
10
-2.6000
20
-2.3550
10
-1.7000
20
-2.3550
10
-1.7000
20
2.3550
10
-2.6000
20
2.3550
0
LWPOLYLINE
5
74
100
AcDbEntity
8
SolderMask
100
AcDbPolyline
90
4
70
1
10
1.7000
20
-2.3550
10
2.6000
20
-2.3550
10
2.6000
20
2.3550
10
1.7000
20
2.3550
0
CIRCLE
5
75
100
AcDbEntity
8
Via
100
AcDbCircle
10
-0.4500
20
-2.0000
30
0.0
40
0.1500
0
CIRCLE
5
76
100
AcDbEntity
8
Via
100
AcDbCircle
10
0.4500
20
-2.0000
30
0.0
40
0.1500
0
CIRCLE
5
77
100
AcDbEntity
8
Via
100
AcDbCircle
10
-0.4500
20
-1.0000
30
0.0
40
0.1500
0
CIRCLE
5
78
100
AcDbEntity
8
Via
100
AcDbCircle
10
0.4500
20
-1.0000
30
0.0
40
0.1500
0
CIRCLE
5
79
100
AcDbEntity
8
Via
100
AcDbCircle
10
-0.4500
20
0.0000
30
0.0
40
0.1500
0
CIRCLE
5
7A
100
AcDbEntity
8
Via
100
AcDbCircle
10
0.4500
20
0.0000
30
0.0
40
0.1500
0
CIRCLE
5
7B
100
AcDbEntity
8
Via
100
AcDbCircle
10
-0.4500
20
1.0000
30
0.0
40
0.1500
0
CIRCLE
5
7C
100
AcDbEntity
8
Via
100
AcDbCircle
10
0.4500
20
1.0000
30
0.0
40
0.1500
0
CIRCLE
5
7D
100
AcDbEntity
8
Via
100
AcDbCircle
10
-0.4500
20
2.0000
30
0.0
40
0.1500
0
CIRCLE
5
7E
100
AcDbEntity
8
Via
100
AcDbCircle
10
0.4500
20
2.0000
30
0.0
40
0.1500
0
LINE
5
7F
100
AcDbEntity
8
Text
100
AcDbLine
10
-2.1500
20
-0.3000
30
0.0
11
-2.1500
21
0.3000
31
0.0
0
LINE
5
80
100
AcDbEntity
8
Text
100
AcDbLine
10
-2.4500
20
0.0000
30
0.0
11
-1.8500
21
0.0000
31
0.0
0
TEXT
5
81
100
AcDbEntity
8
Text
100
AcDbText
10
-2.1500
20
0.4000
30
0.0
40
0.2500
1
PIN 3 (GATE)
72
1
11
-2.1500
21
0.4000
31
0.0
0
LINE
5
82
100
AcDbEntity
8
Text
100
AcDbLine
10
2.1500
20
-0.3000
30
0.0
11
2.1500
21
0.3000
31
0.0
0
LINE
5
83
100
AcDbEntity
8
Text
100
AcDbLine
10
1.8500
20
0.0000
30
0.0
11
2.4500
21
0.0000
31
0.0
0
TEXT
5
84
100
AcDbEntity
8
Text
100
AcDbText
10
2.1500
20
0.4000
30
0.0
40
0.2500
1
PIN 1 (DRAIN)
72
1
11
2.1500
21
0.4000
31
0.0
0
TEXT
5
85
100
AcDbEntity
8
Text
100
AcDbText
10
0.0000
20
-0.3000
30
0.0
40
0.2500
1
PIN 2 (SOURCE)
72
1
11
0.0000
21
-0.3000
31
0.0
0
TEXT
5
86
100
AcDbEntity
8
SilkScreen
100
AcDbText
10
0.0000
20
3.5000
30
0.0
40
0.3500
1
2SK2974
72
1
11
0.0000
21
3.5000
31
0.0
0
CIRCLE
5
87
100
AcDbEntity
8
SilkScreen
100
AcDbCircle
10
-2.8000
20
2.0000
30
0.0
40
0.1500
0
ENDSEC
0
EOF
